<svg role="img" viewBox="0 0 24 24" xmlns="http://www.w3.org/2000/svg"><title>Windi CSS icon</title><path d="M1.8 9.6a1.2 1.2 0 0 1 0-2.4h9.6a2.4 2.4 0 0 0 0-4.8c-.66 0-1.26.264-1.692.708a1.167 1.167 0 0 1-.852.37 1.167 1.167 0 0 1-.852-.37 1.21 1.21 0 0 1 0-1.704A4.83 4.83 0 0 1 11.4 0a4.8 4.8 0 0 1 4.8 4.8 4.8 4.8 0 0 1-4.8 4.8zm18 2.4a1.2 1.2 0 0 0 0-2.4c-.336 0-.636.132-.852.348a1.195 1.195 0 0 1-.846.35c-.157 0-.313-.03-.458-.09a1.194 1.194 0 0 1-.388-.26 1.217 1.217 0 0 1 0-1.692A3.591 3.591 0 0 1 19.8 7.2a3.6 3.6 0 0 1 2.545 6.146A3.6 3.6 0 0 1 19.8 14.4H3A1.2 1.2 0 0 1 3 12zm-1.2 7.2H1.8a1.2 1.2 0 0 1 0-2.4h16.8a3.6 3.6 0 0 1 2.545 6.146A3.6 3.6 0 0 1 18.6 24a3.592 3.592 0 0 1-2.544-1.056 1.217 1.217 0 0 1 0-1.692 1.195 1.195 0 0 1 1.692 0c.216.216.516.348.852.348a1.2 1.2 0 0 0 0-2.4z"/></svg>